<?xml version="1.0"?>
<VTKFile type="UnstructuredGrid" version="0.1" byte_order="LittleEndian">
  <UnstructuredGrid>
    <Piece NumberOfPoints="4" NumberOfCells="1">
      <CellData Scalars="VonMises">
        <DataArray type="Float64" Name="Strain" NumberOfComponents="3" format="ascii">
          9.99999999999999847e-03 -2.49999999999999962e-03 -8.67361737988403547e-19
        </DataArray>
        <DataArray type="Float64" Name="Stress" NumberOfComponents="3" format="ascii">
          1.00000000000000000e+01 0.00000000000000000e+00 -3.46944695195361419e-16
        </DataArray>
        <DataArray type="Float64" Name="VonMises" format="ascii">
          1.00000000000000000e+01
        </DataArray>
        <DataArray type="Float64" Name="PrincipalStress" NumberOfComponents="3" format="ascii">
          1.00000000000000000e+01 0.00000000000000000e+00 0.00000000000000000e+00
        </DataArray>
      </CellData>
      <PointData Vectors="Displacement">
        <DataArray type="Float64" Name="Displacement" NumberOfComponents="3" format="ascii">
          0.00000000000000000e+00 0.00000000000000000e+00 0.00000000000000000e+00
          1.00000000000000019e-02 1.28477006940842181e-18 0.00000000000000000e+00
          9.99999999999999674e-03 -2.49999999999999875e-03 0.00000000000000000e+00
          0.00000000000000000e+00 -2.50000000000000005e-03 0.00000000000000000e+00
        </DataArray>
        <DataArray type="Float64" Name="ReactionForce" NumberOfComponents="3" format="ascii">
          -5.00000000000000000e+00 4.44089209850062616e-16 0.00000000000000000e+00
          0.00000000000000000e+00 -1.11022302462515654e-16 0.00000000000000000e+00
          -8.88178419700125232e-16 -3.88578058618804789e-16 0.00000000000000000e+00
          -4.99999999999999911e+00 2.22044604925031308e-16 0.00000000000000000e+00
        </DataArray>
      </PointData>
      <Points>
        <DataArray type="Float64" NumberOfComponents="3" format="ascii">
          0.00000000000000000e+00 0.00000000000000000e+00 0.00000000000000000e+00
          1.00000000000000000e+00 0.00000000000000000e+00 0.00000000000000000e+00
          1.00000000000000000e+00 1.00000000000000000e+00 0.00000000000000000e+00
          0.00000000000000000e+00 1.00000000000000000e+00 0.00000000000000000e+00
        </DataArray>
      </Points>
      <Cells>
        <DataArray type="Int64" Name="connectivity" format="ascii">
          0 1 2 3
        </DataArray>
        <DataArray type="Int64" Name="offsets" format="ascii">
          4
        </DataArray>
        <DataArray type="UInt8" Name="types" format="ascii">
          9
        </DataArray>
      </Cells>
    </Piece>
  </UnstructuredGrid>
</VTKFile>
